<mxfile host="app.diagrams.net" modified="2021-01-13T13:33:12.776Z" agent="5.0 (Macintosh; Intel Mac OS X 10_15_7) AppleWebKit/537.36 (KHTML, like Gecko) Chrome/87.0.4280.141 Safari/537.36" etag="k5wouxg0VC5GZ4vp3cxs" version="13.11.0" type="github">
  <diagram id="gCQoyacJChci58RxBrDn" name="Page-1">
    <mxGraphModel dx="2200" dy="867" grid="1" gridSize="10" guides="1" tooltips="1" connect="1" arrows="1" fold="1" page="1" pageScale="1" pageWidth="827" pageHeight="1169" math="0" shadow="0">
      <root>
        <mxCell id="0" />
        <mxCell id="1" parent="0" />
        <mxCell id="BjMoMa6c4h5XeE3X_5X_-3" style="edgeStyle=orthogonalEdgeStyle;rounded=0;orthogonalLoop=1;jettySize=auto;html=1;exitX=0.5;exitY=1;exitDx=0;exitDy=0;entryX=0.5;entryY=0;entryDx=0;entryDy=0;" edge="1" parent="1" source="BjMoMa6c4h5XeE3X_5X_-1" target="BjMoMa6c4h5XeE3X_5X_-2">
          <mxGeometry relative="1" as="geometry" />
        </mxCell>
        <mxCell id="BjMoMa6c4h5XeE3X_5X_-1" value="start" style="ellipse;whiteSpace=wrap;html=1;" vertex="1" parent="1">
          <mxGeometry x="100" y="110" width="120" height="80" as="geometry" />
        </mxCell>
        <mxCell id="BjMoMa6c4h5XeE3X_5X_-5" style="edgeStyle=orthogonalEdgeStyle;rounded=0;orthogonalLoop=1;jettySize=auto;html=1;exitX=0.5;exitY=1;exitDx=0;exitDy=0;" edge="1" parent="1" source="BjMoMa6c4h5XeE3X_5X_-2" target="BjMoMa6c4h5XeE3X_5X_-4">
          <mxGeometry relative="1" as="geometry" />
        </mxCell>
        <mxCell id="BjMoMa6c4h5XeE3X_5X_-2" value="初始化配置参数（预加载、沙箱、单例）" style="rounded=0;whiteSpace=wrap;html=1;" vertex="1" parent="1">
          <mxGeometry x="100" y="260" width="120" height="60" as="geometry" />
        </mxCell>
        <mxCell id="BjMoMa6c4h5XeE3X_5X_-7" style="edgeStyle=orthogonalEdgeStyle;rounded=0;orthogonalLoop=1;jettySize=auto;html=1;" edge="1" parent="1" source="BjMoMa6c4h5XeE3X_5X_-4" target="BjMoMa6c4h5XeE3X_5X_-6">
          <mxGeometry relative="1" as="geometry" />
        </mxCell>
        <mxCell id="BjMoMa6c4h5XeE3X_5X_-4" value="启动主应用" style="rounded=0;whiteSpace=wrap;html=1;" vertex="1" parent="1">
          <mxGeometry x="100" y="390" width="120" height="60" as="geometry" />
        </mxCell>
        <mxCell id="BjMoMa6c4h5XeE3X_5X_-19" style="edgeStyle=orthogonalEdgeStyle;rounded=0;orthogonalLoop=1;jettySize=auto;html=1;exitX=0.5;exitY=1;exitDx=0;exitDy=0;entryX=0;entryY=0.5;entryDx=0;entryDy=0;" edge="1" parent="1" source="BjMoMa6c4h5XeE3X_5X_-6" target="BjMoMa6c4h5XeE3X_5X_-15">
          <mxGeometry relative="1" as="geometry" />
        </mxCell>
        <mxCell id="BjMoMa6c4h5XeE3X_5X_-6" value="是否激活子应用&lt;br&gt;single-spa" style="rhombus;whiteSpace=wrap;html=1;" vertex="1" parent="1">
          <mxGeometry x="290" y="380" width="164" height="80" as="geometry" />
        </mxCell>
        <mxCell id="BjMoMa6c4h5XeE3X_5X_-10" style="edgeStyle=orthogonalEdgeStyle;rounded=0;orthogonalLoop=1;jettySize=auto;html=1;exitX=0.5;exitY=1;exitDx=0;exitDy=0;" edge="1" parent="1" source="BjMoMa6c4h5XeE3X_5X_-8" target="BjMoMa6c4h5XeE3X_5X_-9">
          <mxGeometry relative="1" as="geometry" />
        </mxCell>
        <mxCell id="BjMoMa6c4h5XeE3X_5X_-8" value="registerMicroApps" style="ellipse;whiteSpace=wrap;html=1;" vertex="1" parent="1">
          <mxGeometry x="510" y="110" width="120" height="80" as="geometry" />
        </mxCell>
        <mxCell id="BjMoMa6c4h5XeE3X_5X_-12" style="edgeStyle=orthogonalEdgeStyle;rounded=0;orthogonalLoop=1;jettySize=auto;html=1;exitX=0.5;exitY=1;exitDx=0;exitDy=0;" edge="1" parent="1" source="BjMoMa6c4h5XeE3X_5X_-9" target="BjMoMa6c4h5XeE3X_5X_-11">
          <mxGeometry relative="1" as="geometry" />
        </mxCell>
        <mxCell id="BjMoMa6c4h5XeE3X_5X_-9" value="子应用重复判断" style="rounded=0;whiteSpace=wrap;html=1;" vertex="1" parent="1">
          <mxGeometry x="510" y="260" width="120" height="60" as="geometry" />
        </mxCell>
        <mxCell id="BjMoMa6c4h5XeE3X_5X_-14" style="edgeStyle=orthogonalEdgeStyle;rounded=0;orthogonalLoop=1;jettySize=auto;html=1;exitX=0.5;exitY=1;exitDx=0;exitDy=0;entryX=0.5;entryY=0;entryDx=0;entryDy=0;" edge="1" parent="1" source="BjMoMa6c4h5XeE3X_5X_-11" target="BjMoMa6c4h5XeE3X_5X_-13">
          <mxGeometry relative="1" as="geometry" />
        </mxCell>
        <mxCell id="BjMoMa6c4h5XeE3X_5X_-11" value="注册子应用" style="rounded=0;whiteSpace=wrap;html=1;" vertex="1" parent="1">
          <mxGeometry x="510" y="380" width="120" height="60" as="geometry" />
        </mxCell>
        <mxCell id="BjMoMa6c4h5XeE3X_5X_-13" value="设置子应用属性（属性，声明周期）" style="rounded=0;whiteSpace=wrap;html=1;" vertex="1" parent="1">
          <mxGeometry x="510" y="500" width="120" height="60" as="geometry" />
        </mxCell>
        <mxCell id="BjMoMa6c4h5XeE3X_5X_-22" style="edgeStyle=orthogonalEdgeStyle;rounded=0;orthogonalLoop=1;jettySize=auto;html=1;exitX=0.5;exitY=1;exitDx=0;exitDy=0;" edge="1" parent="1" source="BjMoMa6c4h5XeE3X_5X_-15" target="BjMoMa6c4h5XeE3X_5X_-21">
          <mxGeometry relative="1" as="geometry" />
        </mxCell>
        <mxCell id="BjMoMa6c4h5XeE3X_5X_-15" value="执行子应用的 callback" style="rounded=0;whiteSpace=wrap;html=1;" vertex="1" parent="1">
          <mxGeometry x="510" y="610" width="120" height="60" as="geometry" />
        </mxCell>
        <mxCell id="BjMoMa6c4h5XeE3X_5X_-20" value="是" style="text;html=1;align=center;verticalAlign=middle;resizable=0;points=[];autosize=1;" vertex="1" parent="1">
          <mxGeometry x="384" y="530" width="30" height="20" as="geometry" />
        </mxCell>
        <mxCell id="BjMoMa6c4h5XeE3X_5X_-74" style="edgeStyle=orthogonalEdgeStyle;rounded=0;orthogonalLoop=1;jettySize=auto;html=1;exitX=1;exitY=0.5;exitDx=0;exitDy=0;entryX=0.1;entryY=0.5;entryDx=0;entryDy=0;entryPerimeter=0;" edge="1" parent="1" source="BjMoMa6c4h5XeE3X_5X_-21" target="BjMoMa6c4h5XeE3X_5X_-72">
          <mxGeometry relative="1" as="geometry" />
        </mxCell>
        <mxCell id="BjMoMa6c4h5XeE3X_5X_-21" value="执行子应用周期配置" style="rounded=0;whiteSpace=wrap;html=1;" vertex="1" parent="1">
          <mxGeometry x="510" y="720" width="120" height="60" as="geometry" />
        </mxCell>
        <mxCell id="BjMoMa6c4h5XeE3X_5X_-23" value="" style="endArrow=none;dashed=1;html=1;dashPattern=1 3;strokeWidth=2;exitX=1;exitY=0.5;exitDx=0;exitDy=0;entryX=1;entryY=0.5;entryDx=0;entryDy=0;" edge="1" parent="1" source="BjMoMa6c4h5XeE3X_5X_-13" target="BjMoMa6c4h5XeE3X_5X_-21">
          <mxGeometry width="50" height="50" relative="1" as="geometry">
            <mxPoint x="710" y="560" as="sourcePoint" />
            <mxPoint x="760" y="510" as="targetPoint" />
            <Array as="points">
              <mxPoint x="700" y="640" />
            </Array>
          </mxGeometry>
        </mxCell>
        <mxCell id="BjMoMa6c4h5XeE3X_5X_-24" value="两个入口函数，start 函数，以及注册子应用函数" style="text;html=1;strokeColor=none;fillColor=none;align=center;verticalAlign=middle;whiteSpace=wrap;rounded=0;" vertex="1" parent="1">
          <mxGeometry x="207" y="50" width="330" height="20" as="geometry" />
        </mxCell>
        <mxCell id="BjMoMa6c4h5XeE3X_5X_-25" value="沙盒的实现" style="text;html=1;strokeColor=none;fillColor=none;align=center;verticalAlign=middle;whiteSpace=wrap;rounded=0;" vertex="1" parent="1">
          <mxGeometry x="234" y="870" width="330" height="20" as="geometry" />
        </mxCell>
        <mxCell id="BjMoMa6c4h5XeE3X_5X_-31" style="edgeStyle=orthogonalEdgeStyle;rounded=0;orthogonalLoop=1;jettySize=auto;html=1;exitX=0.5;exitY=1;exitDx=0;exitDy=0;entryX=0.5;entryY=0;entryDx=0;entryDy=0;" edge="1" parent="1" source="BjMoMa6c4h5XeE3X_5X_-26" target="BjMoMa6c4h5XeE3X_5X_-28">
          <mxGeometry relative="1" as="geometry" />
        </mxCell>
        <mxCell id="BjMoMa6c4h5XeE3X_5X_-26" value="LegacySandbox" style="ellipse;whiteSpace=wrap;html=1;" vertex="1" parent="1">
          <mxGeometry x="130" y="910" width="120" height="80" as="geometry" />
        </mxCell>
        <mxCell id="BjMoMa6c4h5XeE3X_5X_-27" value="单实例：快照模式，操作 window" style="text;html=1;strokeColor=none;fillColor=none;align=center;verticalAlign=middle;whiteSpace=wrap;rounded=0;" vertex="1" parent="1">
          <mxGeometry x="40" y="950" width="80" height="20" as="geometry" />
        </mxCell>
        <mxCell id="BjMoMa6c4h5XeE3X_5X_-32" style="edgeStyle=orthogonalEdgeStyle;rounded=0;orthogonalLoop=1;jettySize=auto;html=1;exitX=0.5;exitY=1;exitDx=0;exitDy=0;entryX=0.5;entryY=0;entryDx=0;entryDy=0;" edge="1" parent="1" source="BjMoMa6c4h5XeE3X_5X_-28" target="BjMoMa6c4h5XeE3X_5X_-29">
          <mxGeometry relative="1" as="geometry" />
        </mxCell>
        <mxCell id="BjMoMa6c4h5XeE3X_5X_-28" value="proxy 对象" style="rounded=0;whiteSpace=wrap;html=1;" vertex="1" parent="1">
          <mxGeometry x="130" y="1040" width="120" height="60" as="geometry" />
        </mxCell>
        <mxCell id="BjMoMa6c4h5XeE3X_5X_-33" style="edgeStyle=orthogonalEdgeStyle;rounded=0;orthogonalLoop=1;jettySize=auto;html=1;exitX=0.5;exitY=1;exitDx=0;exitDy=0;" edge="1" parent="1" source="BjMoMa6c4h5XeE3X_5X_-29" target="BjMoMa6c4h5XeE3X_5X_-30">
          <mxGeometry relative="1" as="geometry" />
        </mxCell>
        <mxCell id="BjMoMa6c4h5XeE3X_5X_-29" value="子应用设置，window.a&amp;nbsp; = 2" style="rounded=0;whiteSpace=wrap;html=1;" vertex="1" parent="1">
          <mxGeometry x="130" y="1169" width="120" height="60" as="geometry" />
        </mxCell>
        <mxCell id="BjMoMa6c4h5XeE3X_5X_-36" style="edgeStyle=orthogonalEdgeStyle;rounded=0;orthogonalLoop=1;jettySize=auto;html=1;exitX=0.5;exitY=1;exitDx=0;exitDy=0;entryX=0.5;entryY=0;entryDx=0;entryDy=0;" edge="1" parent="1" source="BjMoMa6c4h5XeE3X_5X_-30" target="BjMoMa6c4h5XeE3X_5X_-34">
          <mxGeometry relative="1" as="geometry" />
        </mxCell>
        <mxCell id="BjMoMa6c4h5XeE3X_5X_-37" style="edgeStyle=orthogonalEdgeStyle;rounded=0;orthogonalLoop=1;jettySize=auto;html=1;exitX=0.5;exitY=1;exitDx=0;exitDy=0;" edge="1" parent="1" source="BjMoMa6c4h5XeE3X_5X_-30" target="BjMoMa6c4h5XeE3X_5X_-35">
          <mxGeometry relative="1" as="geometry" />
        </mxCell>
        <mxCell id="BjMoMa6c4h5XeE3X_5X_-30" value="快照记录，状态池存储" style="rounded=0;whiteSpace=wrap;html=1;" vertex="1" parent="1">
          <mxGeometry x="130" y="1300" width="120" height="60" as="geometry" />
        </mxCell>
        <mxCell id="BjMoMa6c4h5XeE3X_5X_-40" style="edgeStyle=orthogonalEdgeStyle;rounded=0;orthogonalLoop=1;jettySize=auto;html=1;exitX=0.5;exitY=1;exitDx=0;exitDy=0;" edge="1" parent="1" source="BjMoMa6c4h5XeE3X_5X_-34" target="BjMoMa6c4h5XeE3X_5X_-38">
          <mxGeometry relative="1" as="geometry" />
        </mxCell>
        <mxCell id="BjMoMa6c4h5XeE3X_5X_-34" value="子应用激活" style="rounded=0;whiteSpace=wrap;html=1;" vertex="1" parent="1">
          <mxGeometry x="20" y="1420" width="120" height="60" as="geometry" />
        </mxCell>
        <mxCell id="BjMoMa6c4h5XeE3X_5X_-41" style="edgeStyle=orthogonalEdgeStyle;rounded=0;orthogonalLoop=1;jettySize=auto;html=1;exitX=0.5;exitY=1;exitDx=0;exitDy=0;" edge="1" parent="1" source="BjMoMa6c4h5XeE3X_5X_-35" target="BjMoMa6c4h5XeE3X_5X_-39">
          <mxGeometry relative="1" as="geometry" />
        </mxCell>
        <mxCell id="BjMoMa6c4h5XeE3X_5X_-35" value="子应用卸载" style="rounded=0;whiteSpace=wrap;html=1;" vertex="1" parent="1">
          <mxGeometry x="278" y="1420" width="120" height="60" as="geometry" />
        </mxCell>
        <mxCell id="BjMoMa6c4h5XeE3X_5X_-38" value="通过&amp;nbsp;currentUpdatedPropsValueMap 还原子应用的状态" style="rounded=0;whiteSpace=wrap;html=1;" vertex="1" parent="1">
          <mxGeometry x="-40" y="1570" width="240" height="60" as="geometry" />
        </mxCell>
        <mxCell id="BjMoMa6c4h5XeE3X_5X_-39" value="addedPropsMapInSandbox，modifiedPropsOriginalValueMapInSandbox 还原主应用全局变量" style="rounded=0;whiteSpace=wrap;html=1;" vertex="1" parent="1">
          <mxGeometry x="220" y="1570" width="236" height="60" as="geometry" />
        </mxCell>
        <mxCell id="BjMoMa6c4h5XeE3X_5X_-46" style="edgeStyle=orthogonalEdgeStyle;rounded=0;orthogonalLoop=1;jettySize=auto;html=1;exitX=0.5;exitY=1;exitDx=0;exitDy=0;" edge="1" parent="1" source="BjMoMa6c4h5XeE3X_5X_-42" target="BjMoMa6c4h5XeE3X_5X_-45">
          <mxGeometry relative="1" as="geometry" />
        </mxCell>
        <mxCell id="BjMoMa6c4h5XeE3X_5X_-42" value="ProxySandbox" style="ellipse;whiteSpace=wrap;html=1;" vertex="1" parent="1">
          <mxGeometry x="580" y="910" width="120" height="80" as="geometry" />
        </mxCell>
        <mxCell id="BjMoMa6c4h5XeE3X_5X_-43" value="多实例：不操作 window，副本记录" style="text;html=1;strokeColor=none;fillColor=none;align=center;verticalAlign=middle;whiteSpace=wrap;rounded=0;" vertex="1" parent="1">
          <mxGeometry x="488" y="950" width="76" height="20" as="geometry" />
        </mxCell>
        <mxCell id="BjMoMa6c4h5XeE3X_5X_-44" value="操作" style="text;html=1;align=center;verticalAlign=middle;resizable=0;points=[];autosize=1;" vertex="1" parent="1">
          <mxGeometry x="190" y="1130" width="40" height="20" as="geometry" />
        </mxCell>
        <mxCell id="BjMoMa6c4h5XeE3X_5X_-64" style="edgeStyle=orthogonalEdgeStyle;rounded=0;orthogonalLoop=1;jettySize=auto;html=1;exitX=0.5;exitY=1;exitDx=0;exitDy=0;entryX=0.5;entryY=0;entryDx=0;entryDy=0;" edge="1" parent="1" source="BjMoMa6c4h5XeE3X_5X_-45" target="BjMoMa6c4h5XeE3X_5X_-49">
          <mxGeometry relative="1" as="geometry" />
        </mxCell>
        <mxCell id="BjMoMa6c4h5XeE3X_5X_-65" style="edgeStyle=orthogonalEdgeStyle;rounded=0;orthogonalLoop=1;jettySize=auto;html=1;exitX=0.5;exitY=1;exitDx=0;exitDy=0;entryX=0.5;entryY=0;entryDx=0;entryDy=0;" edge="1" parent="1" source="BjMoMa6c4h5XeE3X_5X_-45" target="BjMoMa6c4h5XeE3X_5X_-47">
          <mxGeometry relative="1" as="geometry" />
        </mxCell>
        <mxCell id="BjMoMa6c4h5XeE3X_5X_-45" value="proxy 对象" style="rounded=0;whiteSpace=wrap;html=1;" vertex="1" parent="1">
          <mxGeometry x="580" y="1040" width="120" height="60" as="geometry" />
        </mxCell>
        <mxCell id="BjMoMa6c4h5XeE3X_5X_-66" style="edgeStyle=orthogonalEdgeStyle;rounded=0;orthogonalLoop=1;jettySize=auto;html=1;exitX=0.5;exitY=1;exitDx=0;exitDy=0;" edge="1" parent="1" source="BjMoMa6c4h5XeE3X_5X_-47" target="BjMoMa6c4h5XeE3X_5X_-48">
          <mxGeometry relative="1" as="geometry" />
        </mxCell>
        <mxCell id="BjMoMa6c4h5XeE3X_5X_-47" value="子应用设置，window.a = 2" style="rounded=0;whiteSpace=wrap;html=1;" vertex="1" parent="1">
          <mxGeometry x="513" y="1200" width="120" height="60" as="geometry" />
        </mxCell>
        <mxCell id="BjMoMa6c4h5XeE3X_5X_-48" value="劫持对 window 的操作，设置子应用的内部状态池 updateValueMap.a = 2" style="rounded=0;whiteSpace=wrap;html=1;" vertex="1" parent="1">
          <mxGeometry x="510" y="1311" width="126" height="60" as="geometry" />
        </mxCell>
        <mxCell id="BjMoMa6c4h5XeE3X_5X_-54" style="edgeStyle=orthogonalEdgeStyle;rounded=0;orthogonalLoop=1;jettySize=auto;html=1;exitX=0.5;exitY=1;exitDx=0;exitDy=0;" edge="1" parent="1" source="BjMoMa6c4h5XeE3X_5X_-49" target="BjMoMa6c4h5XeE3X_5X_-51">
          <mxGeometry relative="1" as="geometry" />
        </mxCell>
        <mxCell id="BjMoMa6c4h5XeE3X_5X_-49" value="子应用获取值&lt;br&gt;get window.a" style="rounded=0;whiteSpace=wrap;html=1;" vertex="1" parent="1">
          <mxGeometry x="671" y="1200" width="120" height="60" as="geometry" />
        </mxCell>
        <mxCell id="BjMoMa6c4h5XeE3X_5X_-50" value="查询子应用内部状态池" style="rounded=0;whiteSpace=wrap;html=1;" vertex="1" parent="1">
          <mxGeometry x="671" y="1521" width="120" height="60" as="geometry" />
        </mxCell>
        <mxCell id="BjMoMa6c4h5XeE3X_5X_-55" style="edgeStyle=orthogonalEdgeStyle;rounded=0;orthogonalLoop=1;jettySize=auto;html=1;exitX=1;exitY=0.5;exitDx=0;exitDy=0;entryX=0.5;entryY=0;entryDx=0;entryDy=0;" edge="1" parent="1" source="BjMoMa6c4h5XeE3X_5X_-51" target="BjMoMa6c4h5XeE3X_5X_-52">
          <mxGeometry relative="1" as="geometry" />
        </mxCell>
        <mxCell id="BjMoMa6c4h5XeE3X_5X_-57" style="edgeStyle=orthogonalEdgeStyle;rounded=0;orthogonalLoop=1;jettySize=auto;html=1;exitX=0.5;exitY=1;exitDx=0;exitDy=0;" edge="1" parent="1" source="BjMoMa6c4h5XeE3X_5X_-51" target="BjMoMa6c4h5XeE3X_5X_-53">
          <mxGeometry relative="1" as="geometry" />
        </mxCell>
        <mxCell id="BjMoMa6c4h5XeE3X_5X_-51" value="属性是否为 getter 属性" style="rhombus;whiteSpace=wrap;html=1;" vertex="1" parent="1">
          <mxGeometry x="651" y="1281" width="160" height="80" as="geometry" />
        </mxCell>
        <mxCell id="BjMoMa6c4h5XeE3X_5X_-52" value="查询 window 对象" style="rounded=0;whiteSpace=wrap;html=1;" vertex="1" parent="1">
          <mxGeometry x="871" y="1521" width="120" height="60" as="geometry" />
        </mxCell>
        <mxCell id="BjMoMa6c4h5XeE3X_5X_-59" style="edgeStyle=orthogonalEdgeStyle;rounded=0;orthogonalLoop=1;jettySize=auto;html=1;exitX=0.5;exitY=1;exitDx=0;exitDy=0;entryX=0.5;entryY=0;entryDx=0;entryDy=0;" edge="1" parent="1" source="BjMoMa6c4h5XeE3X_5X_-53" target="BjMoMa6c4h5XeE3X_5X_-50">
          <mxGeometry relative="1" as="geometry" />
        </mxCell>
        <mxCell id="BjMoMa6c4h5XeE3X_5X_-61" style="edgeStyle=orthogonalEdgeStyle;rounded=0;orthogonalLoop=1;jettySize=auto;html=1;exitX=1;exitY=0.5;exitDx=0;exitDy=0;" edge="1" parent="1" source="BjMoMa6c4h5XeE3X_5X_-53">
          <mxGeometry relative="1" as="geometry">
            <mxPoint x="931" y="1521" as="targetPoint" />
          </mxGeometry>
        </mxCell>
        <mxCell id="BjMoMa6c4h5XeE3X_5X_-53" value="子应用是否存在该属性" style="rhombus;whiteSpace=wrap;html=1;" vertex="1" parent="1">
          <mxGeometry x="636" y="1401" width="190" height="80" as="geometry" />
        </mxCell>
        <mxCell id="BjMoMa6c4h5XeE3X_5X_-56" value="否" style="text;html=1;align=center;verticalAlign=middle;resizable=0;points=[];autosize=1;" vertex="1" parent="1">
          <mxGeometry x="856" y="1291" width="30" height="20" as="geometry" />
        </mxCell>
        <mxCell id="BjMoMa6c4h5XeE3X_5X_-58" value="是" style="text;html=1;align=center;verticalAlign=middle;resizable=0;points=[];autosize=1;" vertex="1" parent="1">
          <mxGeometry x="726" y="1371" width="30" height="20" as="geometry" />
        </mxCell>
        <mxCell id="BjMoMa6c4h5XeE3X_5X_-60" value="是" style="text;html=1;align=center;verticalAlign=middle;resizable=0;points=[];autosize=1;" vertex="1" parent="1">
          <mxGeometry x="736" y="1491" width="30" height="20" as="geometry" />
        </mxCell>
        <mxCell id="BjMoMa6c4h5XeE3X_5X_-62" value="否" style="text;html=1;align=center;verticalAlign=middle;resizable=0;points=[];autosize=1;" vertex="1" parent="1">
          <mxGeometry x="856" y="1421" width="30" height="20" as="geometry" />
        </mxCell>
        <mxCell id="BjMoMa6c4h5XeE3X_5X_-67" value="操作" style="text;html=1;align=center;verticalAlign=middle;resizable=0;points=[];autosize=1;" vertex="1" parent="1">
          <mxGeometry x="570" y="1160" width="40" height="20" as="geometry" />
        </mxCell>
        <mxCell id="BjMoMa6c4h5XeE3X_5X_-68" value="操作" style="text;html=1;align=center;verticalAlign=middle;resizable=0;points=[];autosize=1;" vertex="1" parent="1">
          <mxGeometry x="731" y="1160" width="40" height="20" as="geometry" />
        </mxCell>
        <mxCell id="BjMoMa6c4h5XeE3X_5X_-72" value="" style="shape=curlyBracket;whiteSpace=wrap;html=1;rounded=1;" vertex="1" parent="1">
          <mxGeometry x="736" y="690" width="20" height="120" as="geometry" />
        </mxCell>
        <mxCell id="BjMoMa6c4h5XeE3X_5X_-80" value="容器 DOM 生成" style="text;html=1;align=center;verticalAlign=middle;resizable=0;points=[];autosize=1;" vertex="1" parent="1">
          <mxGeometry x="766" y="680" width="100" height="20" as="geometry" />
        </mxCell>
        <mxCell id="BjMoMa6c4h5XeE3X_5X_-81" value="样式隔离配置" style="text;html=1;align=center;verticalAlign=middle;resizable=0;points=[];autosize=1;" vertex="1" parent="1">
          <mxGeometry x="766" y="740" width="90" height="20" as="geometry" />
        </mxCell>
        <mxCell id="BjMoMa6c4h5XeE3X_5X_-82" value="沙箱创建" style="text;html=1;align=center;verticalAlign=middle;resizable=0;points=[];autosize=1;" vertex="1" parent="1">
          <mxGeometry x="771" y="790" width="60" height="20" as="geometry" />
        </mxCell>
        <mxCell id="BjMoMa6c4h5XeE3X_5X_-90" style="edgeStyle=orthogonalEdgeStyle;rounded=0;orthogonalLoop=1;jettySize=auto;html=1;exitX=0.5;exitY=1;exitDx=0;exitDy=0;" edge="1" parent="1" source="BjMoMa6c4h5XeE3X_5X_-84" target="BjMoMa6c4h5XeE3X_5X_-85">
          <mxGeometry relative="1" as="geometry" />
        </mxCell>
        <mxCell id="BjMoMa6c4h5XeE3X_5X_-96" style="edgeStyle=orthogonalEdgeStyle;rounded=0;orthogonalLoop=1;jettySize=auto;html=1;exitX=0.5;exitY=1;exitDx=0;exitDy=0;entryX=0.5;entryY=0;entryDx=0;entryDy=0;" edge="1" parent="1" source="BjMoMa6c4h5XeE3X_5X_-84" target="BjMoMa6c4h5XeE3X_5X_-91">
          <mxGeometry relative="1" as="geometry" />
        </mxCell>
        <mxCell id="BjMoMa6c4h5XeE3X_5X_-84" value="SnapshotSandbox" style="ellipse;whiteSpace=wrap;html=1;" vertex="1" parent="1">
          <mxGeometry x="157" y="1690" width="120" height="80" as="geometry" />
        </mxCell>
        <mxCell id="BjMoMa6c4h5XeE3X_5X_-88" style="edgeStyle=orthogonalEdgeStyle;rounded=0;orthogonalLoop=1;jettySize=auto;html=1;exitX=0.5;exitY=1;exitDx=0;exitDy=0;entryX=0.5;entryY=0;entryDx=0;entryDy=0;" edge="1" parent="1" source="BjMoMa6c4h5XeE3X_5X_-85" target="BjMoMa6c4h5XeE3X_5X_-86">
          <mxGeometry relative="1" as="geometry" />
        </mxCell>
        <mxCell id="BjMoMa6c4h5XeE3X_5X_-85" value="子应用激活" style="rounded=0;whiteSpace=wrap;html=1;" vertex="1" parent="1">
          <mxGeometry x="20" y="1820" width="120" height="60" as="geometry" />
        </mxCell>
        <mxCell id="BjMoMa6c4h5XeE3X_5X_-89" style="edgeStyle=orthogonalEdgeStyle;rounded=0;orthogonalLoop=1;jettySize=auto;html=1;exitX=0.5;exitY=1;exitDx=0;exitDy=0;" edge="1" parent="1" source="BjMoMa6c4h5XeE3X_5X_-86" target="BjMoMa6c4h5XeE3X_5X_-87">
          <mxGeometry relative="1" as="geometry" />
        </mxCell>
        <mxCell id="BjMoMa6c4h5XeE3X_5X_-86" value="记录当前 window 的状态，打快照 windowSnapshot" style="rounded=0;whiteSpace=wrap;html=1;" vertex="1" parent="1">
          <mxGeometry x="20" y="1930" width="120" height="60" as="geometry" />
        </mxCell>
        <mxCell id="BjMoMa6c4h5XeE3X_5X_-87" value="通过 modifyPropsMap 对象还原当前子应用沙箱环境" style="rounded=0;whiteSpace=wrap;html=1;" vertex="1" parent="1">
          <mxGeometry x="20" y="2040" width="120" height="60" as="geometry" />
        </mxCell>
        <mxCell id="BjMoMa6c4h5XeE3X_5X_-94" style="edgeStyle=orthogonalEdgeStyle;rounded=0;orthogonalLoop=1;jettySize=auto;html=1;exitX=0.5;exitY=1;exitDx=0;exitDy=0;entryX=0.5;entryY=0;entryDx=0;entryDy=0;" edge="1" parent="1" source="BjMoMa6c4h5XeE3X_5X_-91" target="BjMoMa6c4h5XeE3X_5X_-92">
          <mxGeometry relative="1" as="geometry" />
        </mxCell>
        <mxCell id="BjMoMa6c4h5XeE3X_5X_-91" value="子应用卸载" style="rounded=0;whiteSpace=wrap;html=1;" vertex="1" parent="1">
          <mxGeometry x="304" y="1820" width="120" height="60" as="geometry" />
        </mxCell>
        <mxCell id="BjMoMa6c4h5XeE3X_5X_-95" style="edgeStyle=orthogonalEdgeStyle;rounded=0;orthogonalLoop=1;jettySize=auto;html=1;exitX=0.5;exitY=1;exitDx=0;exitDy=0;" edge="1" parent="1" source="BjMoMa6c4h5XeE3X_5X_-92" target="BjMoMa6c4h5XeE3X_5X_-93">
          <mxGeometry relative="1" as="geometry" />
        </mxCell>
        <mxCell id="BjMoMa6c4h5XeE3X_5X_-92" value="记录沙箱运营期间的被修改的 window 属性，记录在 modifyPropsMap" style="rounded=0;whiteSpace=wrap;html=1;" vertex="1" parent="1">
          <mxGeometry x="304" y="1930" width="120" height="60" as="geometry" />
        </mxCell>
        <mxCell id="BjMoMa6c4h5XeE3X_5X_-93" value="通过快照对象 windowSnapshot 还原沙箱状态到激活前状态" style="rounded=0;whiteSpace=wrap;html=1;" vertex="1" parent="1">
          <mxGeometry x="304" y="2040" width="120" height="60" as="geometry" />
        </mxCell>
        <mxCell id="BjMoMa6c4h5XeE3X_5X_-97" value="操作" style="text;html=1;align=center;verticalAlign=middle;resizable=0;points=[];autosize=1;" vertex="1" parent="1">
          <mxGeometry x="220" y="1770" width="40" height="20" as="geometry" />
        </mxCell>
        <mxCell id="BjMoMa6c4h5XeE3X_5X_-100" value="" style="shape=flexArrow;endArrow=classic;html=1;" edge="1" parent="1">
          <mxGeometry width="50" height="50" relative="1" as="geometry">
            <mxPoint x="290" y="1960" as="sourcePoint" />
            <mxPoint x="160" y="2070" as="targetPoint" />
          </mxGeometry>
        </mxCell>
        <mxCell id="BjMoMa6c4h5XeE3X_5X_-101" value="" style="shape=flexArrow;endArrow=classic;html=1;" edge="1" parent="1">
          <mxGeometry width="50" height="50" relative="1" as="geometry">
            <mxPoint x="160" y="1960" as="sourcePoint" />
            <mxPoint x="290" y="2070" as="targetPoint" />
          </mxGeometry>
        </mxCell>
        <mxCell id="BjMoMa6c4h5XeE3X_5X_-109" style="edgeStyle=orthogonalEdgeStyle;rounded=0;orthogonalLoop=1;jettySize=auto;html=1;" edge="1" parent="1" source="BjMoMa6c4h5XeE3X_5X_-102" target="BjMoMa6c4h5XeE3X_5X_-103">
          <mxGeometry relative="1" as="geometry" />
        </mxCell>
        <mxCell id="BjMoMa6c4h5XeE3X_5X_-102" value="createSandboxContainer" style="ellipse;whiteSpace=wrap;html=1;" vertex="1" parent="1">
          <mxGeometry x="120" y="2160" width="120" height="80" as="geometry" />
        </mxCell>
        <mxCell id="BjMoMa6c4h5XeE3X_5X_-110" style="edgeStyle=orthogonalEdgeStyle;rounded=0;orthogonalLoop=1;jettySize=auto;html=1;exitX=0.5;exitY=1;exitDx=0;exitDy=0;" edge="1" parent="1" source="BjMoMa6c4h5XeE3X_5X_-103" target="BjMoMa6c4h5XeE3X_5X_-104">
          <mxGeometry relative="1" as="geometry" />
        </mxCell>
        <mxCell id="BjMoMa6c4h5XeE3X_5X_-103" value="根据配置创建 Sandbox 实例" style="rounded=0;whiteSpace=wrap;html=1;" vertex="1" parent="1">
          <mxGeometry x="120" y="2320" width="120" height="60" as="geometry" />
        </mxCell>
        <mxCell id="BjMoMa6c4h5XeE3X_5X_-111" style="edgeStyle=orthogonalEdgeStyle;rounded=0;orthogonalLoop=1;jettySize=auto;html=1;exitX=0.5;exitY=1;exitDx=0;exitDy=0;entryX=0.5;entryY=0;entryDx=0;entryDy=0;" edge="1" parent="1" source="BjMoMa6c4h5XeE3X_5X_-104" target="BjMoMa6c4h5XeE3X_5X_-105">
          <mxGeometry relative="1" as="geometry" />
        </mxCell>
        <mxCell id="BjMoMa6c4h5XeE3X_5X_-112" style="edgeStyle=orthogonalEdgeStyle;rounded=0;orthogonalLoop=1;jettySize=auto;html=1;exitX=0.5;exitY=1;exitDx=0;exitDy=0;entryX=0.5;entryY=0;entryDx=0;entryDy=0;" edge="1" parent="1" source="BjMoMa6c4h5XeE3X_5X_-104" target="BjMoMa6c4h5XeE3X_5X_-106">
          <mxGeometry relative="1" as="geometry" />
        </mxCell>
        <mxCell id="BjMoMa6c4h5XeE3X_5X_-104" value="生成 Sandbox 生命周期" style="rounded=0;whiteSpace=wrap;html=1;" vertex="1" parent="1">
          <mxGeometry x="120" y="2450" width="120" height="60" as="geometry" />
        </mxCell>
        <mxCell id="BjMoMa6c4h5XeE3X_5X_-115" style="edgeStyle=orthogonalEdgeStyle;rounded=0;orthogonalLoop=1;jettySize=auto;html=1;exitX=0.5;exitY=1;exitDx=0;exitDy=0;" edge="1" parent="1" source="BjMoMa6c4h5XeE3X_5X_-105" target="BjMoMa6c4h5XeE3X_5X_-107">
          <mxGeometry relative="1" as="geometry" />
        </mxCell>
        <mxCell id="BjMoMa6c4h5XeE3X_5X_-105" value="mount" style="rounded=0;whiteSpace=wrap;html=1;" vertex="1" parent="1">
          <mxGeometry x="-35" y="2580" width="120" height="60" as="geometry" />
        </mxCell>
        <mxCell id="BjMoMa6c4h5XeE3X_5X_-117" style="edgeStyle=orthogonalEdgeStyle;rounded=0;orthogonalLoop=1;jettySize=auto;html=1;exitX=0.5;exitY=1;exitDx=0;exitDy=0;" edge="1" parent="1" source="BjMoMa6c4h5XeE3X_5X_-106" target="BjMoMa6c4h5XeE3X_5X_-114">
          <mxGeometry relative="1" as="geometry" />
        </mxCell>
        <mxCell id="BjMoMa6c4h5XeE3X_5X_-106" value="unmount" style="rounded=0;whiteSpace=wrap;html=1;" vertex="1" parent="1">
          <mxGeometry x="275" y="2580" width="120" height="60" as="geometry" />
        </mxCell>
        <mxCell id="BjMoMa6c4h5XeE3X_5X_-116" style="edgeStyle=orthogonalEdgeStyle;rounded=0;orthogonalLoop=1;jettySize=auto;html=1;exitX=0.5;exitY=1;exitDx=0;exitDy=0;" edge="1" parent="1" source="BjMoMa6c4h5XeE3X_5X_-107" target="BjMoMa6c4h5XeE3X_5X_-113">
          <mxGeometry relative="1" as="geometry" />
        </mxCell>
        <mxCell id="BjMoMa6c4h5XeE3X_5X_-107" value="&amp;nbsp;sanbox active 激活" style="rounded=0;whiteSpace=wrap;html=1;" vertex="1" parent="1">
          <mxGeometry x="-35" y="2710" width="120" height="60" as="geometry" />
        </mxCell>
        <mxCell id="BjMoMa6c4h5XeE3X_5X_-108" value="sandbox inactive 卸载" style="rounded=0;whiteSpace=wrap;html=1;" vertex="1" parent="1">
          <mxGeometry x="275" y="2840" width="120" height="60" as="geometry" />
        </mxCell>
        <mxCell id="BjMoMa6c4h5XeE3X_5X_-113" value="patch 劫持各全局监听，防止污染全局" style="rounded=0;whiteSpace=wrap;html=1;" vertex="1" parent="1">
          <mxGeometry x="-35" y="2840" width="120" height="60" as="geometry" />
        </mxCell>
        <mxCell id="BjMoMa6c4h5XeE3X_5X_-118" style="edgeStyle=orthogonalEdgeStyle;rounded=0;orthogonalLoop=1;jettySize=auto;html=1;" edge="1" parent="1" source="BjMoMa6c4h5XeE3X_5X_-114" target="BjMoMa6c4h5XeE3X_5X_-108">
          <mxGeometry relative="1" as="geometry" />
        </mxCell>
        <mxCell id="BjMoMa6c4h5XeE3X_5X_-114" value="free 释放各类监听&amp;nbsp;" style="rounded=0;whiteSpace=wrap;html=1;" vertex="1" parent="1">
          <mxGeometry x="275" y="2720" width="120" height="60" as="geometry" />
        </mxCell>
      </root>
    </mxGraphModel>
  </diagram>
</mxfile>
